<?xml version="1.0" encoding="UTF-8" standalone="no"?>
<!-- Created with Inkscape (http://www.inkscape.org/) -->

<svg
   xmlns:dc="http://purl.org/dc/elements/1.1/"
   xmlns:cc="http://creativecommons.org/ns#"
   xmlns:rdf="http://www.w3.org/1999/02/22-rdf-syntax-ns#"
   xmlns:svg="http://www.w3.org/2000/svg"
   xmlns="http://www.w3.org/2000/svg"
   xmlns:sodipodi="http://sodipodi.sourceforge.net/DTD/sodipodi-0.dtd"
   xmlns:inkscape="http://www.inkscape.org/namespaces/inkscape"
   width="37.388927mm"
   height="8.7036896mm"
   viewBox="0 0 132.48045 30.839846"
   id="svg2"
   version="1.1"
   inkscape:version="0.91 r13725"
   sodipodi:docname="wordmark.svg">
  <defs
     id="defs4" />
  <sodipodi:namedview
     id="base"
     pagecolor="#ffffff"
     bordercolor="#666666"
     borderopacity="1.0"
     inkscape:pageopacity="0.0"
     inkscape:pageshadow="2"
     inkscape:zoom="1.979899"
     inkscape:cx="58.487775"
     inkscape:cy="-1.1950071"
     inkscape:document-units="px"
     inkscape:current-layer="layer1"
     showgrid="false"
     fit-margin-top="0"
     fit-margin-left="0"
     fit-margin-right="0"
     fit-margin-bottom="0"
     inkscape:window-width="1280"
     inkscape:window-height="722"
     inkscape:window-x="0"
     inkscape:window-y="26"
     inkscape:window-maximized="1" />
  <metadata
     id="metadata7">
    <rdf:RDF>
      <cc:Work
         rdf:about="">
        <dc:format>image/svg+xml</dc:format>
        <dc:type
           rdf:resource="http://purl.org/dc/dcmitype/StillImage" />
        <dc:title></dc:title>
      </cc:Work>
    </rdf:RDF>
  </metadata>
  <g
     inkscape:label="Layer 1"
     inkscape:groupmode="layer"
     id="layer1"
     transform="translate(-141.46579,-188.16311)">
    <path
       inkscape:connector-curvature="0"
       id="path3353"
       style="font-style:normal;font-variant:normal;font-weight:bold;font-stretch:normal;font-size:medium;line-height:125%;font-family:Lora;-inkscape-font-specification:'Lora Bold';letter-spacing:0px;word-spacing:0px;fill:#000000;fill-opacity:0.87058824;stroke:none;stroke-width:1px;stroke-linecap:butt;stroke-linejoin:miter;stroke-opacity:1"
       d="m 155.58686,197.71389 q 0.70312,0 1.32812,0.19532 0.64453,0.19531 1.11328,0.60547 0.48828,0.39062 0.76172,1.01562 0.29297,0.625 0.29297,1.50391 0,0.46875 -0.15625,0.97656 -0.15625,0.48828 -0.48828,0.89844 -0.33203,0.41015 -0.87891,0.68359 -0.52734,0.25391 -1.28906,0.25391 -0.41016,0 -0.83984,-0.0977 -0.42969,-0.11719 -0.80078,-0.37109 -0.35157,-0.27344 -0.625,-0.72266 -0.25391,-0.44922 -0.3125,-1.15234 -0.60547,0 -1.23047,0.41015 -0.60547,0.39063 -1.15235,0.9961 -0.52734,0.58593 -0.9375,1.26953 -0.41015,0.68359 -0.58593,1.23047 l 0,6.52343 q 0,0.29297 -0.0195,0.70313 0,0.41016 -0.0195,0.87891 -0.0195,0.46875 -0.0586,0.97656 -0.0195,0.48828 -0.0586,0.9375 l 2.59765,-0.11719 0,3.04688 -10.48828,0 0,-2.59766 q 0.83984,0 1.30859,-0.25391 0.48829,-0.2539 0.72266,-0.72265 0.23438,-0.46875 0.29297,-1.11328 0.0586,-0.66407 0.0586,-1.46485 l 0,-6.73828 q 0,-0.72266 0.0195,-1.60156 0.0391,-0.89844 0.13672,-1.79688 l -2.8125,0.11719 0,-3.02734 q 1.38672,0 2.4414,-0.11719 1.07422,-0.11719 1.81641,-0.29297 0.76172,-0.17578 1.21094,-0.37109 0.46875,-0.21485 0.68359,-0.41016 l 1.97266,0 0.17578,3.4375 0.0586,0 q 0.39062,-0.52734 0.9375,-1.17187 0.56641,-0.64454 1.28906,-1.19141 0.74219,-0.56641 1.6211,-0.9375 0.8789,-0.39063 1.91406,-0.39063 z" />
    <path
       inkscape:connector-curvature="0"
       id="path3355"
       style="font-style:normal;font-variant:normal;font-weight:bold;font-stretch:normal;font-size:medium;line-height:125%;font-family:Lora;-inkscape-font-specification:'Lora Bold';letter-spacing:0px;word-spacing:0px;fill:#000000;fill-opacity:0.87058824;stroke:none;stroke-width:1px;stroke-linecap:butt;stroke-linejoin:miter;stroke-opacity:1"
       d="m 170.45014,200.52639 q -0.87891,0 -1.58204,0.33204 -0.68359,0.33203 -1.1914,0.91796 -0.50781,0.58594 -0.83984,1.42579 -0.3125,0.82031 -0.44922,1.8164 l 7.36328,0 q -0.0391,-1.23047 -0.29297,-2.08984 -0.25391,-0.85938 -0.70313,-1.38672 -0.42968,-0.54688 -1.01562,-0.78125 -0.58594,-0.23438 -1.28906,-0.23438 z m 8.82812,7.07032 -13.14453,0.23437 q 0,1.64063 0.29297,3.04688 0.3125,1.38672 0.97656,2.40234 0.66407,0.99609 1.73828,1.58203 1.07422,0.56641 2.63672,0.56641 0.60547,0 1.34766,-0.15625 0.74218,-0.15625 1.5039,-0.50781 0.78125,-0.35157 1.5625,-0.91797 0.78125,-0.58594 1.46485,-1.42578 l 1.79687,1.69921 q -1.07422,1.54297 -2.28515,2.5 -1.21094,0.95704 -2.44141,1.48438 -1.21094,0.52734 -2.40234,0.70312 -1.17188,0.19532 -2.1875,0.19532 -2.20703,0 -4.02344,-0.74219 -1.81641,-0.74219 -3.125,-2.12891 -1.30859,-1.38672 -2.03125,-3.33984 -0.70312,-1.95313 -0.70312,-4.39453 0,-2.10938 0.70312,-4.02344 0.72266,-1.93359 2.03125,-3.41797 1.30859,-1.48437 3.14453,-2.36328 1.85547,-0.87891 4.12109,-0.87891 1.11328,0 2.20703,0.19532 1.11329,0.19531 2.10938,0.66406 1.01562,0.44922 1.875,1.19141 0.87891,0.74218 1.50391,1.83593 0.625,1.09375 0.97656,2.57813 0.37109,1.48437 0.35156,3.41797 z" />
    <path
       inkscape:connector-curvature="0"
       id="path3357"
       style="font-style:normal;font-variant:normal;font-weight:bold;font-stretch:normal;font-size:medium;line-height:125%;font-family:Lora;-inkscape-font-specification:'Lora Bold';letter-spacing:0px;word-spacing:0px;fill:#000000;fill-opacity:0.87058824;stroke:none;stroke-width:1px;stroke-linecap:butt;stroke-linejoin:miter;stroke-opacity:1"
       d="m 192.91107,209.15921 q -1.13281,0.11718 -2.1289,0.41015 -0.9961,0.29297 -1.73828,0.78125 -0.72266,0.46875 -1.15235,1.13282 -0.41015,0.66406 -0.41015,1.52343 0.0195,0.56641 0.21484,0.95703 0.19531,0.39063 0.48828,0.64454 0.3125,0.2539 0.70313,0.37109 0.41015,0.11719 0.83984,0.11719 0.9375,0 1.73828,-0.39063 0.80078,-0.39062 1.42578,-1.07422 l 0.0195,-4.47265 z m -10.2539,-6.17188 q 0,-1.17187 0.64453,-2.14844 0.66406,-0.97656 1.79687,-1.66015 1.15235,-0.70313 2.69532,-1.07422 1.54296,-0.39063 3.30078,-0.39063 1.75781,0 3.125,0.44922 1.38672,0.44922 2.32422,1.38672 0.95703,0.9375 1.44531,2.38281 0.50781,1.44532 0.50781,3.4375 0,1.01563 -0.0195,1.79688 0,0.76172 0,1.48437 0,0.70313 -0.0195,1.48438 0,0.78125 0,1.79687 0,0.29297 -0.0195,0.70313 0,0.41016 -0.0195,0.87891 0,0.46875 -0.0391,0.97656 -0.0195,0.48828 -0.0586,0.9375 l 2.57812,-0.11719 0,3.04688 -7.55859,0 q -0.0781,-0.56641 -0.11719,-0.9375 -0.0195,-0.39063 -0.0391,-0.89844 l -0.0391,0 q -1.36719,1.36719 -2.85156,1.91406 -1.48438,0.56641 -3.06641,0.56641 -1.28906,0 -2.30469,-0.41016 -1.01562,-0.39062 -1.71875,-1.11328 -0.68359,-0.72266 -1.05469,-1.67969 -0.37109,-0.97656 -0.37109,-2.1289 0,-1.26954 0.44922,-2.28516 0.44922,-1.01563 1.23047,-1.81641 0.80078,-0.80078 1.875,-1.38672 1.07422,-0.58593 2.30469,-0.97656 1.25,-0.39062 2.59765,-0.60547 1.34766,-0.21484 2.69531,-0.27343 l 0,-2.08985 q 0,-0.80078 -0.13671,-1.46484 -0.13672,-0.6836 -0.46875,-1.17188 -0.33204,-0.48828 -0.87891,-0.76172 -0.54688,-0.27343 -1.36719,-0.2539 -0.82031,0.0391 -1.52344,0.33203 -0.70312,0.29297 -1.21093,0.82031 0.3125,0.33203 0.39062,0.76172 0.0977,0.42969 0.0977,0.72266 0,0.42968 -0.15625,0.8789 -0.15625,0.42969 -0.48828,0.80078 -0.33203,0.35157 -0.83985,0.58594 -0.50781,0.23438 -1.21093,0.23438 -0.58594,-0.0195 -1.05469,-0.23438 -0.46875,-0.23437 -0.78125,-0.58594 -0.3125,-0.37109 -0.48828,-0.85937 -0.15625,-0.48828 -0.15625,-1.05469 z" />
    <path
       inkscape:connector-curvature="0"
       id="path3359"
       style="font-style:normal;font-variant:normal;font-weight:bold;font-stretch:normal;font-size:medium;line-height:125%;font-family:Lora;-inkscape-font-specification:'Lora Bold';letter-spacing:0px;word-spacing:0px;fill:#000000;fill-opacity:0.87058824;stroke:none;stroke-width:1px;stroke-linecap:butt;stroke-linejoin:miter;stroke-opacity:1"
       d="m 222.01264,188.16311 0,23.76953 q 0,0.29297 -0.0195,0.70313 0,0.41016 -0.0195,0.87891 -0.0195,0.46875 -0.0586,0.97656 -0.0195,0.48828 -0.0586,0.9375 l 2.59765,-0.11719 0,3.04688 -7.59765,0 -0.21485,-1.85547 -0.0391,0 q -1.32813,1.38672 -2.75391,1.93359 -1.40625,0.56641 -2.89062,0.56641 -1.79688,0 -3.28125,-0.70313 -1.48438,-0.72265 -2.5586,-2.03125 -1.05468,-1.32812 -1.64062,-3.20312 -0.58594,-1.875 -0.58594,-4.19922 0,-2.42188 0.70313,-4.45313 0.72265,-2.05078 2.01172,-3.53515 1.30859,-1.48438 3.125,-2.32422 1.83593,-0.83985 4.0625,-0.83985 1.11328,0 1.95312,0.23438 0.85938,0.21484 1.60156,0.48828 l 0,-2.65625 q 0,-0.29297 0,-0.70312 0.0195,-0.41016 0.0391,-0.87891 0.0195,-0.46875 0.0391,-0.95703 0.0391,-0.50781 0.0781,-0.95703 l -2.8125,0.11718 0,-3.04687 q 1.38672,0 2.44141,-0.11719 1.07422,-0.11719 1.81641,-0.29297 0.76171,-0.17578 1.21093,-0.37109 0.46875,-0.21484 0.6836,-0.41016 l 2.16797,0 z m -8.96485,27.1875 q 1.01563,0 1.89453,-0.52734 0.87891,-0.52734 1.40625,-1.36719 l 0,-12.03125 q -0.42968,-0.29297 -1.1914,-0.50781 -0.76172,-0.23438 -1.64063,-0.23438 -1.38672,0.0391 -2.30469,0.70313 -0.91796,0.64453 -1.46484,1.71875 -0.54687,1.05469 -0.78125,2.40234 -0.21484,1.34766 -0.21484,2.75391 0,1.28906 0.23437,2.55859 0.23438,1.26953 0.74219,2.28516 0.52734,0.99609 1.34766,1.62109 0.82031,0.625 1.97265,0.625 z" />
    <path
       inkscape:connector-curvature="0"
       id="path3361"
       style="font-style:normal;font-variant:normal;font-weight:bold;font-stretch:normal;font-size:medium;line-height:125%;font-family:Lora;-inkscape-font-specification:'Lora Bold';letter-spacing:0px;word-spacing:0px;fill:#434343;fill-opacity:1;stroke:none;stroke-width:1px;stroke-linecap:butt;stroke-linejoin:miter;stroke-opacity:1"
       d="m 232.9892,215.89749 q 0,0.64453 -0.21485,1.21094 -0.19531,0.5664 -0.5664,0.99609 -0.35156,0.41016 -0.87891,0.64453 -0.52734,0.25391 -1.17187,0.25391 -0.66407,0 -1.21094,-0.25391 -0.54688,-0.23437 -0.9375,-0.64453 -0.39063,-0.42969 -0.60547,-0.99609 -0.21484,-0.56641 -0.21484,-1.21094 0,-0.64453 0.23437,-1.21094 0.23438,-0.58594 0.625,-1.01562 0.41016,-0.42969 0.9375,-0.66407 0.52735,-0.2539 1.11328,-0.2539 0.625,0 1.15235,0.2539 0.52734,0.23438 0.91797,0.66407 0.39062,0.42968 0.60546,1.01562 0.21485,0.56641 0.21485,1.21094 z" />
    <path
       inkscape:connector-curvature="0"
       id="path3363"
       style="font-style:normal;font-variant:normal;font-weight:bold;font-stretch:normal;font-size:medium;line-height:125%;font-family:Lora;-inkscape-font-specification:'Lora Bold';letter-spacing:0px;word-spacing:0px;fill:#000000;fill-opacity:0.87058824;stroke:none;stroke-width:1px;stroke-linecap:butt;stroke-linejoin:miter;stroke-opacity:1"
       d="m 247.12982,209.15921 q -1.13281,0.11718 -2.1289,0.41015 -0.9961,0.29297 -1.73828,0.78125 -0.72266,0.46875 -1.15235,1.13282 -0.41015,0.66406 -0.41015,1.52343 0.0195,0.56641 0.21484,0.95703 0.19531,0.39063 0.48828,0.64454 0.3125,0.2539 0.70313,0.37109 0.41015,0.11719 0.83984,0.11719 0.9375,0 1.73828,-0.39063 0.80078,-0.39062 1.42578,-1.07422 l 0.0195,-4.47265 z m -10.2539,-6.17188 q 0,-1.17187 0.64453,-2.14844 0.66406,-0.97656 1.79687,-1.66015 1.15235,-0.70313 2.69532,-1.07422 1.54296,-0.39063 3.30078,-0.39063 1.75781,0 3.125,0.44922 1.38672,0.44922 2.32422,1.38672 0.95703,0.9375 1.44531,2.38281 0.50781,1.44532 0.50781,3.4375 0,1.01563 -0.0195,1.79688 0,0.76172 0,1.48437 0,0.70313 -0.0195,1.48438 0,0.78125 0,1.79687 0,0.29297 -0.0195,0.70313 0,0.41016 -0.0195,0.87891 0,0.46875 -0.0391,0.97656 -0.0195,0.48828 -0.0586,0.9375 l 2.57812,-0.11719 0,3.04688 -7.55859,0 q -0.0781,-0.56641 -0.11719,-0.9375 -0.0195,-0.39063 -0.0391,-0.89844 l -0.0391,0 q -1.36719,1.36719 -2.85156,1.91406 -1.48438,0.56641 -3.06641,0.56641 -1.28906,0 -2.30469,-0.41016 -1.01562,-0.39062 -1.71875,-1.11328 -0.68359,-0.72266 -1.05469,-1.67969 -0.37109,-0.97656 -0.37109,-2.1289 0,-1.26954 0.44922,-2.28516 0.44922,-1.01563 1.23047,-1.81641 0.80078,-0.80078 1.875,-1.38672 1.07422,-0.58593 2.30469,-0.97656 1.25,-0.39062 2.59765,-0.60547 1.34766,-0.21484 2.69531,-0.27343 l 0,-2.08985 q 0,-0.80078 -0.13671,-1.46484 -0.13672,-0.6836 -0.46875,-1.17188 -0.33204,-0.48828 -0.87891,-0.76172 -0.54688,-0.27343 -1.36719,-0.2539 -0.82031,0.0391 -1.52344,0.33203 -0.70312,0.29297 -1.21093,0.82031 0.3125,0.33203 0.39062,0.76172 0.0977,0.42969 0.0977,0.72266 0,0.42968 -0.15625,0.8789 -0.15625,0.42969 -0.48828,0.80078 -0.33203,0.35157 -0.83985,0.58594 -0.50781,0.23438 -1.21093,0.23438 -0.58594,-0.0195 -1.05469,-0.23438 -0.46875,-0.23437 -0.78125,-0.58594 -0.3125,-0.37109 -0.48828,-0.85937 -0.15625,-0.48828 -0.15625,-1.05469 z" />
    <path
       inkscape:connector-curvature="0"
       id="path3365"
       style="font-style:normal;font-variant:normal;font-weight:bold;font-stretch:normal;font-size:medium;line-height:125%;font-family:Lora;-inkscape-font-specification:'Lora Bold';letter-spacing:0px;word-spacing:0px;fill:#000000;fill-opacity:0.87058824;stroke:none;stroke-width:1px;stroke-linecap:butt;stroke-linejoin:miter;stroke-opacity:1"
       d="m 260.21576,211.75686 q 0.0781,0.91797 0.58594,1.71875 0.50781,0.80078 1.32812,1.38672 0.82032,0.58594 1.91407,0.91797 1.11328,0.33203 2.38281,0.33203 0.48828,0 0.97656,-0.11719 0.50781,-0.11718 0.89844,-0.35156 0.39062,-0.2539 0.625,-0.625 0.2539,-0.37109 0.2539,-0.89844 0,-0.5664 -0.3125,-0.95703 -0.29296,-0.41015 -0.8789,-0.74218 -0.58594,-0.35157 -1.46485,-0.6836 -0.85937,-0.33203 -1.99218,-0.78125 -1.25,-0.48828 -2.51953,-0.99609 -1.26954,-0.52735 -2.30469,-1.26953 -1.03516,-0.74219 -1.69922,-1.81641 -0.64453,-1.09375 -0.64453,-2.71484 0,-1.15235 0.42969,-2.30469 0.44921,-1.15234 1.36718,-2.07031 0.91797,-0.91797 2.34375,-1.48438 1.42578,-0.58594 3.39844,-0.58594 0.54688,0 1.17188,0.0781 0.64453,0.0781 1.28906,0.25391 0.64453,0.15625 1.25,0.41015 0.60547,0.25391 1.09375,0.60547 l 0.0391,0 -0.0586,-1.13281 3.04687,0 0,7.07031 -2.57812,0 q -0.17578,-1.03516 -0.66407,-1.85547 -0.46875,-0.83984 -1.1914,-1.40625 -0.72266,-0.58594 -1.66016,-0.89844 -0.91797,-0.3125 -1.99219,-0.3125 -0.50781,0 -0.99609,0.11719 -0.46875,0.11719 -0.83984,0.3711 -0.3711,0.2539 -0.58594,0.66406 -0.21484,0.39062 -0.21484,0.97656 0,0.70313 0.37109,1.17188 0.37109,0.44921 1.03516,0.78125 0.66406,0.33203 1.54296,0.625 0.89844,0.27343 1.9336,0.625 1.52344,0.52734 2.8125,1.15234 1.28906,0.625 2.22656,1.46484 0.9375,0.82032 1.46484,1.89453 0.54688,1.05469 0.54688,2.46094 0,1.5625 -0.625,2.73438 -0.60547,1.15234 -1.62109,1.91406 -1.01563,0.76172 -2.32422,1.13281 -1.3086,0.39063 -2.71485,0.39063 -0.85937,0 -1.71875,-0.11719 -0.85937,-0.11719 -1.64062,-0.33203 -0.78125,-0.19531 -1.44531,-0.48828 -0.64454,-0.29297 -1.11329,-0.64453 l -0.0391,0 0.13672,1.21093 -3.04687,0 -0.15625,-6.875 2.57812,0 z" />
  </g>
</svg>
